# xmcd CD database file
#
# Track frame offsets:
#	150
#	8565
#	20552
#	31760
#
# Disc length: 532 seconds
#
# Revision: 0
# Processed by: cddbd v1.5.1PL0 Copyright (c) Steve Scherf et al.
# Submitted via: CDex 1.51
#
DISCID=1e021204
DTITLE=マイナーリーグ&GERONIMO - PRAY FOR US
DYEAR=1900
DGENRE=Hardcore
TTITLE0=ナダレ
TTITLE1=FREE FALL
TTITLE2=GIVE US A REST
TTITLE3=SET ME FREE
EXTD=
EXTT0=
EXTT1=
EXTT2=
EXTT3=
PLAYORDER=
